# xmcd
#
# Track frame offsets: 
#        150
#        15499
#        41051
#        64654
#        79850
#        93575
#        112820
#        127018
#        147453
#        164039
#        179401
#
# Disc length: 2781 seconds
#
# Revision: 0
# Processed by: cddbd v1.5.2PL0 Copyright (c) Steve Scherf et al.
# Submitted via: ExactAudioCopy v0.99pb3
#
DISCID=980adb0b
DTITLE=Big Sofa and The Lazy Boys - Big Sofa and The Lazy Boys
DYEAR=2005
DGENRE=R&B
TTITLE0=Anywhere With You
TTITLE1=Rhythm and Jive At Five
TTITLE2=April's Here
TTITLE3=Nous Sommes Tous Bon Vivant
TTITLE4=Great Day In The Morning
TTITLE5=Alligator Meat
TTITLE6=I Just Want To Be In Love
TTITLE7=Fine And Dandy
TTITLE8=Enchante (Duet)
TTITLE9=The Best In This Life
TTITLE10=Every Day I Have The Blues
EXTD=
EXTT0=
EXTT1=
EXTT2=
EXTT3=
EXTT4=
EXTT5=
EXTT6=
EXTT7=
EXTT8=
EXTT9=
EXTT10=
PLAYORDER=
